<mxfile host="app.diagrams.net" modified="2024-06-20T17:34:03.001Z" agent="Mozilla/5.0 (Windows NT 10.0; Win64; x64; rv:127.0) Gecko/20100101 Firefox/127.0" etag="Gy32yy7rgnx8rjQ0SlMe" version="24.5.5" type="device">
  <diagram name="Page-1" id="vMH8HhIBkj1jx-lWY0Aj">
    <mxGraphModel dx="2074" dy="726" grid="1" gridSize="10" guides="1" tooltips="1" connect="1" arrows="1" fold="1" page="1" pageScale="1" pageWidth="850" pageHeight="1100" math="0" shadow="0">
      <root>
        <mxCell id="0" />
        <mxCell id="1" parent="0" />
        <mxCell id="oc0d_i5aHuvM6bAmKXlb-20" value="tk.Tk" style="swimlane;fontStyle=1;align=center;verticalAlign=top;childLayout=stackLayout;horizontal=1;startSize=26;horizontalStack=0;resizeParent=1;resizeParentMax=0;resizeLast=0;collapsible=1;marginBottom=0;whiteSpace=wrap;html=1;" parent="1" vertex="1">
          <mxGeometry x="80" width="200" height="86" as="geometry" />
        </mxCell>
        <mxCell id="oc0d_i5aHuvM6bAmKXlb-21" value="stuff" style="text;strokeColor=none;fillColor=none;align=left;verticalAlign=top;spacingLeft=4;spacingRight=4;overflow=hidden;rotatable=0;points=[[0,0.5],[1,0.5]];portConstraint=eastwest;whiteSpace=wrap;html=1;" parent="oc0d_i5aHuvM6bAmKXlb-20" vertex="1">
          <mxGeometry y="26" width="200" height="26" as="geometry" />
        </mxCell>
        <mxCell id="oc0d_i5aHuvM6bAmKXlb-22" value="" style="line;strokeWidth=1;fillColor=none;align=left;verticalAlign=middle;spacingTop=-1;spacingLeft=3;spacingRight=3;rotatable=0;labelPosition=right;points=[];portConstraint=eastwest;strokeColor=inherit;" parent="oc0d_i5aHuvM6bAmKXlb-20" vertex="1">
          <mxGeometry y="52" width="200" height="8" as="geometry" />
        </mxCell>
        <mxCell id="oc0d_i5aHuvM6bAmKXlb-23" value="stuff" style="text;strokeColor=none;fillColor=none;align=left;verticalAlign=top;spacingLeft=4;spacingRight=4;overflow=hidden;rotatable=0;points=[[0,0.5],[1,0.5]];portConstraint=eastwest;whiteSpace=wrap;html=1;" parent="oc0d_i5aHuvM6bAmKXlb-20" vertex="1">
          <mxGeometry y="60" width="200" height="26" as="geometry" />
        </mxCell>
        <mxCell id="oc0d_i5aHuvM6bAmKXlb-30" value="BomCheckerMainWindow" style="swimlane;fontStyle=1;align=center;verticalAlign=top;childLayout=stackLayout;horizontal=1;startSize=26;horizontalStack=0;resizeParent=1;resizeParentMax=0;resizeLast=0;collapsible=1;marginBottom=0;whiteSpace=wrap;html=1;" parent="1" vertex="1">
          <mxGeometry x="25" y="160" width="310" height="184" as="geometry" />
        </mxCell>
        <mxCell id="oc0d_i5aHuvM6bAmKXlb-31" value="&lt;div&gt;geometry: str&lt;br&gt;&lt;/div&gt;&lt;div&gt;title: str&lt;/div&gt;&lt;div&gt;test_name: tk.Label&lt;/div&gt;&lt;div&gt;upload_frame: UploadFrame&lt;/div&gt;&lt;div&gt;compare_search_frame: CompareSearchFrame&lt;/div&gt;&lt;div&gt;warning_frame: WarningFrame&lt;/div&gt;&lt;div&gt;highlight_error_frame: HighlightErrorsFrame&lt;br&gt;&lt;/div&gt;&lt;div&gt;&lt;br&gt;&lt;/div&gt;&lt;div&gt;&lt;br&gt;&lt;br&gt;&lt;/div&gt;" style="text;strokeColor=none;fillColor=none;align=left;verticalAlign=top;spacingLeft=4;spacingRight=4;overflow=hidden;rotatable=0;points=[[0,0.5],[1,0.5]];portConstraint=eastwest;whiteSpace=wrap;html=1;" parent="oc0d_i5aHuvM6bAmKXlb-30" vertex="1">
          <mxGeometry y="26" width="310" height="124" as="geometry" />
        </mxCell>
        <mxCell id="oc0d_i5aHuvM6bAmKXlb-32" value="" style="line;strokeWidth=1;fillColor=none;align=left;verticalAlign=middle;spacingTop=-1;spacingLeft=3;spacingRight=3;rotatable=0;labelPosition=right;points=[];portConstraint=eastwest;strokeColor=inherit;" parent="oc0d_i5aHuvM6bAmKXlb-30" vertex="1">
          <mxGeometry y="150" width="310" height="8" as="geometry" />
        </mxCell>
        <mxCell id="oc0d_i5aHuvM6bAmKXlb-33" value="__init__(self) -&amp;gt; None" style="text;strokeColor=none;fillColor=none;align=left;verticalAlign=top;spacingLeft=4;spacingRight=4;overflow=hidden;rotatable=0;points=[[0,0.5],[1,0.5]];portConstraint=eastwest;whiteSpace=wrap;html=1;" parent="oc0d_i5aHuvM6bAmKXlb-30" vertex="1">
          <mxGeometry y="158" width="310" height="26" as="geometry" />
        </mxCell>
        <mxCell id="oc0d_i5aHuvM6bAmKXlb-38" value="UploadFrame" style="swimlane;fontStyle=1;align=center;verticalAlign=top;childLayout=stackLayout;horizontal=1;startSize=26;horizontalStack=0;resizeParent=1;resizeParentMax=0;resizeLast=0;collapsible=1;marginBottom=0;whiteSpace=wrap;html=1;" parent="1" vertex="1">
          <mxGeometry x="400" y="40" width="380" height="100" as="geometry" />
        </mxCell>
        <mxCell id="oc0d_i5aHuvM6bAmKXlb-39" value="&lt;div&gt;boms: list[Boms]&lt;/div&gt;&lt;div&gt;boms_uploaded_frame: tk.Frame&lt;/div&gt;" style="text;strokeColor=none;fillColor=none;align=left;verticalAlign=top;spacingLeft=4;spacingRight=4;overflow=hidden;rotatable=0;points=[[0,0.5],[1,0.5]];portConstraint=eastwest;whiteSpace=wrap;html=1;" parent="oc0d_i5aHuvM6bAmKXlb-38" vertex="1">
          <mxGeometry y="26" width="380" height="44" as="geometry" />
        </mxCell>
        <mxCell id="oc0d_i5aHuvM6bAmKXlb-40" value="" style="line;strokeWidth=1;fillColor=none;align=left;verticalAlign=middle;spacingTop=-1;spacingLeft=3;spacingRight=3;rotatable=0;labelPosition=right;points=[];portConstraint=eastwest;strokeColor=inherit;" parent="oc0d_i5aHuvM6bAmKXlb-38" vertex="1">
          <mxGeometry y="70" width="380" height="8" as="geometry" />
        </mxCell>
        <mxCell id="oc0d_i5aHuvM6bAmKXlb-41" value="__init__(self, position, padx_ = 10, pady_ = 10) -&amp;gt; None" style="text;strokeColor=none;fillColor=none;align=left;verticalAlign=top;spacingLeft=4;spacingRight=4;overflow=hidden;rotatable=0;points=[[0,0.5],[1,0.5]];portConstraint=eastwest;whiteSpace=wrap;html=1;" parent="oc0d_i5aHuvM6bAmKXlb-38" vertex="1">
          <mxGeometry y="78" width="380" height="22" as="geometry" />
        </mxCell>
        <mxCell id="oc0d_i5aHuvM6bAmKXlb-42" value="CompareSearchFrame" style="swimlane;fontStyle=1;align=center;verticalAlign=top;childLayout=stackLayout;horizontal=1;startSize=26;horizontalStack=0;resizeParent=1;resizeParentMax=0;resizeLast=0;collapsible=1;marginBottom=0;whiteSpace=wrap;html=1;" parent="1" vertex="1">
          <mxGeometry x="400" y="172" width="380" height="138" as="geometry" />
        </mxCell>
        <mxCell id="oc0d_i5aHuvM6bAmKXlb-43" value="&lt;div&gt;highlight_error_list: list[HighlightError]&lt;br&gt;&lt;/div&gt;&lt;div&gt;&lt;br&gt;&lt;/div&gt;" style="text;strokeColor=none;fillColor=none;align=left;verticalAlign=top;spacingLeft=4;spacingRight=4;overflow=hidden;rotatable=0;points=[[0,0.5],[1,0.5]];portConstraint=eastwest;whiteSpace=wrap;html=1;" parent="oc0d_i5aHuvM6bAmKXlb-42" vertex="1">
          <mxGeometry y="26" width="380" height="34" as="geometry" />
        </mxCell>
        <mxCell id="oc0d_i5aHuvM6bAmKXlb-44" value="" style="line;strokeWidth=1;fillColor=none;align=left;verticalAlign=middle;spacingTop=-1;spacingLeft=3;spacingRight=3;rotatable=0;labelPosition=right;points=[];portConstraint=eastwest;strokeColor=inherit;" parent="oc0d_i5aHuvM6bAmKXlb-42" vertex="1">
          <mxGeometry y="60" width="380" height="8" as="geometry" />
        </mxCell>
        <mxCell id="oc0d_i5aHuvM6bAmKXlb-45" value="__init__(self, frame_holding_boms, position, compare_button_coords = [0, 0], search_coords&amp;nbsp; = [2, 0], padx_ = 10, pady_ = 10, search_input_height = 1, search_input_width = 10) -&amp;gt; None" style="text;strokeColor=none;fillColor=none;align=left;verticalAlign=top;spacingLeft=4;spacingRight=4;overflow=hidden;rotatable=0;points=[[0,0.5],[1,0.5]];portConstraint=eastwest;whiteSpace=wrap;html=1;" parent="oc0d_i5aHuvM6bAmKXlb-42" vertex="1">
          <mxGeometry y="68" width="380" height="70" as="geometry" />
        </mxCell>
        <mxCell id="oc0d_i5aHuvM6bAmKXlb-46" value="WarningFrame" style="swimlane;fontStyle=1;align=center;verticalAlign=top;childLayout=stackLayout;horizontal=1;startSize=26;horizontalStack=0;resizeParent=1;resizeParentMax=0;resizeLast=0;collapsible=1;marginBottom=0;whiteSpace=wrap;html=1;" parent="1" vertex="1">
          <mxGeometry x="400" y="344" width="380" height="86" as="geometry" />
        </mxCell>
        <mxCell id="oc0d_i5aHuvM6bAmKXlb-47" value="&lt;div&gt;&lt;font color=&quot;#ff0000&quot;&gt;Needs to access: list[HighlightError]&lt;br&gt;&lt;/font&gt;&lt;/div&gt;" style="text;strokeColor=none;fillColor=none;align=left;verticalAlign=top;spacingLeft=4;spacingRight=4;overflow=hidden;rotatable=0;points=[[0,0.5],[1,0.5]];portConstraint=eastwest;whiteSpace=wrap;html=1;" parent="oc0d_i5aHuvM6bAmKXlb-46" vertex="1">
          <mxGeometry y="26" width="380" height="26" as="geometry" />
        </mxCell>
        <mxCell id="oc0d_i5aHuvM6bAmKXlb-48" value="" style="line;strokeWidth=1;fillColor=none;align=left;verticalAlign=middle;spacingTop=-1;spacingLeft=3;spacingRight=3;rotatable=0;labelPosition=right;points=[];portConstraint=eastwest;strokeColor=inherit;" parent="oc0d_i5aHuvM6bAmKXlb-46" vertex="1">
          <mxGeometry y="52" width="380" height="8" as="geometry" />
        </mxCell>
        <mxCell id="oc0d_i5aHuvM6bAmKXlb-49" value="__init__(self, position, padx_ = 10, pady_ = 10) -&amp;gt; None" style="text;strokeColor=none;fillColor=none;align=left;verticalAlign=top;spacingLeft=4;spacingRight=4;overflow=hidden;rotatable=0;points=[[0,0.5],[1,0.5]];portConstraint=eastwest;whiteSpace=wrap;html=1;" parent="oc0d_i5aHuvM6bAmKXlb-46" vertex="1">
          <mxGeometry y="60" width="380" height="26" as="geometry" />
        </mxCell>
        <mxCell id="oc0d_i5aHuvM6bAmKXlb-50" value="HighlightErrorsFrame" style="swimlane;fontStyle=1;align=center;verticalAlign=top;childLayout=stackLayout;horizontal=1;startSize=26;horizontalStack=0;resizeParent=1;resizeParentMax=0;resizeLast=0;collapsible=1;marginBottom=0;whiteSpace=wrap;html=1;" parent="1" vertex="1">
          <mxGeometry x="400" y="452" width="380" height="118" as="geometry" />
        </mxCell>
        <mxCell id="oc0d_i5aHuvM6bAmKXlb-51" value="&lt;font color=&quot;#ff0000&quot;&gt;Needs to access: list[HighlightError]&lt;br&gt;&lt;/font&gt;" style="text;strokeColor=none;fillColor=none;align=left;verticalAlign=top;spacingLeft=4;spacingRight=4;overflow=hidden;rotatable=0;points=[[0,0.5],[1,0.5]];portConstraint=eastwest;whiteSpace=wrap;html=1;" parent="oc0d_i5aHuvM6bAmKXlb-50" vertex="1">
          <mxGeometry y="26" width="380" height="44" as="geometry" />
        </mxCell>
        <mxCell id="oc0d_i5aHuvM6bAmKXlb-52" value="" style="line;strokeWidth=1;fillColor=none;align=left;verticalAlign=middle;spacingTop=-1;spacingLeft=3;spacingRight=3;rotatable=0;labelPosition=right;points=[];portConstraint=eastwest;strokeColor=inherit;" parent="oc0d_i5aHuvM6bAmKXlb-50" vertex="1">
          <mxGeometry y="70" width="380" height="8" as="geometry" />
        </mxCell>
        <mxCell id="oc0d_i5aHuvM6bAmKXlb-53" value="__init__(self, parent_window, position, padx_ = 10, pady_ = 10) -&amp;gt; None" style="text;strokeColor=none;fillColor=none;align=left;verticalAlign=top;spacingLeft=4;spacingRight=4;overflow=hidden;rotatable=0;points=[[0,0.5],[1,0.5]];portConstraint=eastwest;whiteSpace=wrap;html=1;" parent="oc0d_i5aHuvM6bAmKXlb-50" vertex="1">
          <mxGeometry y="78" width="380" height="40" as="geometry" />
        </mxCell>
        <mxCell id="oc0d_i5aHuvM6bAmKXlb-54" value="Extends" style="endArrow=block;endSize=16;endFill=0;html=1;rounded=0;entryX=0.5;entryY=1.058;entryDx=0;entryDy=0;entryPerimeter=0;exitX=0.5;exitY=0;exitDx=0;exitDy=0;" parent="1" source="oc0d_i5aHuvM6bAmKXlb-30" target="oc0d_i5aHuvM6bAmKXlb-23" edge="1">
          <mxGeometry width="160" relative="1" as="geometry">
            <mxPoint x="190" y="280" as="sourcePoint" />
            <mxPoint x="350" y="280" as="targetPoint" />
          </mxGeometry>
        </mxCell>
        <mxCell id="oc0d_i5aHuvM6bAmKXlb-55" value="" style="endArrow=none;html=1;rounded=0;entryX=0;entryY=0.5;entryDx=0;entryDy=0;exitX=1;exitY=0.5;exitDx=0;exitDy=0;" parent="1" source="oc0d_i5aHuvM6bAmKXlb-31" target="oc0d_i5aHuvM6bAmKXlb-39" edge="1">
          <mxGeometry width="50" height="50" relative="1" as="geometry">
            <mxPoint x="320" y="270" as="sourcePoint" />
            <mxPoint x="370" y="220" as="targetPoint" />
          </mxGeometry>
        </mxCell>
        <mxCell id="oc0d_i5aHuvM6bAmKXlb-56" value="" style="endArrow=none;html=1;rounded=0;entryX=0;entryY=0.5;entryDx=0;entryDy=0;exitX=1;exitY=0.5;exitDx=0;exitDy=0;" parent="1" source="oc0d_i5aHuvM6bAmKXlb-31" target="oc0d_i5aHuvM6bAmKXlb-42" edge="1">
          <mxGeometry width="50" height="50" relative="1" as="geometry">
            <mxPoint x="345" y="258" as="sourcePoint" />
            <mxPoint x="410" y="72" as="targetPoint" />
          </mxGeometry>
        </mxCell>
        <mxCell id="oc0d_i5aHuvM6bAmKXlb-57" value="" style="endArrow=none;html=1;rounded=0;entryX=0;entryY=0.5;entryDx=0;entryDy=0;exitX=1;exitY=0.5;exitDx=0;exitDy=0;" parent="1" source="oc0d_i5aHuvM6bAmKXlb-31" target="oc0d_i5aHuvM6bAmKXlb-51" edge="1">
          <mxGeometry width="50" height="50" relative="1" as="geometry">
            <mxPoint x="320" y="280" as="sourcePoint" />
            <mxPoint x="370" y="230" as="targetPoint" />
          </mxGeometry>
        </mxCell>
        <mxCell id="oc0d_i5aHuvM6bAmKXlb-58" value="" style="endArrow=none;html=1;rounded=0;entryX=0;entryY=0.5;entryDx=0;entryDy=0;exitX=1;exitY=0.5;exitDx=0;exitDy=0;" parent="1" source="oc0d_i5aHuvM6bAmKXlb-30" target="oc0d_i5aHuvM6bAmKXlb-47" edge="1">
          <mxGeometry width="50" height="50" relative="1" as="geometry">
            <mxPoint x="320" y="280" as="sourcePoint" />
            <mxPoint x="370" y="230" as="targetPoint" />
          </mxGeometry>
        </mxCell>
        <mxCell id="oc0d_i5aHuvM6bAmKXlb-59" value="ButtonWithText" style="swimlane;fontStyle=1;align=center;verticalAlign=top;childLayout=stackLayout;horizontal=1;startSize=26;horizontalStack=0;resizeParent=1;resizeParentMax=0;resizeLast=0;collapsible=1;marginBottom=0;whiteSpace=wrap;html=1;" parent="1" vertex="1">
          <mxGeometry x="1320" y="40" width="380" height="120" as="geometry" />
        </mxCell>
        <mxCell id="oc0d_i5aHuvM6bAmKXlb-60" value="&lt;div&gt;input: tk.Text&lt;/div&gt;&lt;div&gt;label: tk.Label&lt;br&gt;&lt;/div&gt;" style="text;strokeColor=none;fillColor=none;align=left;verticalAlign=top;spacingLeft=4;spacingRight=4;overflow=hidden;rotatable=0;points=[[0,0.5],[1,0.5]];portConstraint=eastwest;whiteSpace=wrap;html=1;" parent="oc0d_i5aHuvM6bAmKXlb-59" vertex="1">
          <mxGeometry y="26" width="380" height="44" as="geometry" />
        </mxCell>
        <mxCell id="oc0d_i5aHuvM6bAmKXlb-61" value="" style="line;strokeWidth=1;fillColor=none;align=left;verticalAlign=middle;spacingTop=-1;spacingLeft=3;spacingRight=3;rotatable=0;labelPosition=right;points=[];portConstraint=eastwest;strokeColor=inherit;" parent="oc0d_i5aHuvM6bAmKXlb-59" vertex="1">
          <mxGeometry y="70" width="380" height="8" as="geometry" />
        </mxCell>
        <mxCell id="oc0d_i5aHuvM6bAmKXlb-62" value="__init__(self, frame, label_text, text_cord, padx_ = 5, pady_ = 5, column_span = 1, sticky_ = None) -&amp;gt; None" style="text;strokeColor=none;fillColor=none;align=left;verticalAlign=top;spacingLeft=4;spacingRight=4;overflow=hidden;rotatable=0;points=[[0,0.5],[1,0.5]];portConstraint=eastwest;whiteSpace=wrap;html=1;" parent="oc0d_i5aHuvM6bAmKXlb-59" vertex="1">
          <mxGeometry y="78" width="380" height="42" as="geometry" />
        </mxCell>
        <mxCell id="oc0d_i5aHuvM6bAmKXlb-63" value="ButtonWithLabel" style="swimlane;fontStyle=1;align=center;verticalAlign=top;childLayout=stackLayout;horizontal=1;startSize=26;horizontalStack=0;resizeParent=1;resizeParentMax=0;resizeLast=0;collapsible=1;marginBottom=0;whiteSpace=wrap;html=1;" parent="1" vertex="1">
          <mxGeometry x="1320" y="200" width="380" height="150" as="geometry" />
        </mxCell>
        <mxCell id="oc0d_i5aHuvM6bAmKXlb-64" value="&lt;div&gt;label_value: tk.StringVar&lt;/div&gt;&lt;div&gt;button: tk.Button&lt;/div&gt;&lt;div&gt;label: tk.Label&lt;br&gt;&lt;/div&gt;" style="text;strokeColor=none;fillColor=none;align=left;verticalAlign=top;spacingLeft=4;spacingRight=4;overflow=hidden;rotatable=0;points=[[0,0.5],[1,0.5]];portConstraint=eastwest;whiteSpace=wrap;html=1;" parent="oc0d_i5aHuvM6bAmKXlb-63" vertex="1">
          <mxGeometry y="26" width="380" height="54" as="geometry" />
        </mxCell>
        <mxCell id="oc0d_i5aHuvM6bAmKXlb-65" value="" style="line;strokeWidth=1;fillColor=none;align=left;verticalAlign=middle;spacingTop=-1;spacingLeft=3;spacingRight=3;rotatable=0;labelPosition=right;points=[];portConstraint=eastwest;strokeColor=inherit;" parent="oc0d_i5aHuvM6bAmKXlb-63" vertex="1">
          <mxGeometry y="80" width="380" height="8" as="geometry" />
        </mxCell>
        <mxCell id="oc0d_i5aHuvM6bAmKXlb-66" value="__init__(self, frame, label_text, buttom_text, button_cord, command_ = None, padx_ = 5, pady_ = 5, column_span = 1, sticky_ = None) -&amp;gt; None" style="text;strokeColor=none;fillColor=none;align=left;verticalAlign=top;spacingLeft=4;spacingRight=4;overflow=hidden;rotatable=0;points=[[0,0.5],[1,0.5]];portConstraint=eastwest;whiteSpace=wrap;html=1;" parent="oc0d_i5aHuvM6bAmKXlb-63" vertex="1">
          <mxGeometry y="88" width="380" height="62" as="geometry" />
        </mxCell>
        <mxCell id="oc0d_i5aHuvM6bAmKXlb-68" value="Toplevel" style="swimlane;fontStyle=1;align=center;verticalAlign=top;childLayout=stackLayout;horizontal=1;startSize=26;horizontalStack=0;resizeParent=1;resizeParentMax=0;resizeLast=0;collapsible=1;marginBottom=0;whiteSpace=wrap;html=1;" parent="1" vertex="1">
          <mxGeometry x="930" width="200" height="86" as="geometry" />
        </mxCell>
        <mxCell id="oc0d_i5aHuvM6bAmKXlb-69" value="stuff" style="text;strokeColor=none;fillColor=none;align=left;verticalAlign=top;spacingLeft=4;spacingRight=4;overflow=hidden;rotatable=0;points=[[0,0.5],[1,0.5]];portConstraint=eastwest;whiteSpace=wrap;html=1;" parent="oc0d_i5aHuvM6bAmKXlb-68" vertex="1">
          <mxGeometry y="26" width="200" height="26" as="geometry" />
        </mxCell>
        <mxCell id="oc0d_i5aHuvM6bAmKXlb-70" value="" style="line;strokeWidth=1;fillColor=none;align=left;verticalAlign=middle;spacingTop=-1;spacingLeft=3;spacingRight=3;rotatable=0;labelPosition=right;points=[];portConstraint=eastwest;strokeColor=inherit;" parent="oc0d_i5aHuvM6bAmKXlb-68" vertex="1">
          <mxGeometry y="52" width="200" height="8" as="geometry" />
        </mxCell>
        <mxCell id="oc0d_i5aHuvM6bAmKXlb-71" value="stuff" style="text;strokeColor=none;fillColor=none;align=left;verticalAlign=top;spacingLeft=4;spacingRight=4;overflow=hidden;rotatable=0;points=[[0,0.5],[1,0.5]];portConstraint=eastwest;whiteSpace=wrap;html=1;" parent="oc0d_i5aHuvM6bAmKXlb-68" vertex="1">
          <mxGeometry y="60" width="200" height="26" as="geometry" />
        </mxCell>
        <mxCell id="oc0d_i5aHuvM6bAmKXlb-72" value="BomUploadWindow" style="swimlane;fontStyle=1;align=center;verticalAlign=top;childLayout=stackLayout;horizontal=1;startSize=26;horizontalStack=0;resizeParent=1;resizeParentMax=0;resizeLast=0;collapsible=1;marginBottom=0;whiteSpace=wrap;html=1;" parent="1" vertex="1">
          <mxGeometry x="850" y="130" width="360" height="190" as="geometry" />
        </mxCell>
        <mxCell id="oc0d_i5aHuvM6bAmKXlb-73" value="&lt;div&gt;geometry: str&lt;br&gt;&lt;/div&gt;&lt;div&gt;title: str&lt;/div&gt;&lt;div&gt;wm_attributes: str&lt;/div&gt;&lt;div&gt;input_storage: list[ButtonWithText]&lt;/div&gt;&lt;div&gt;bom_label: str&lt;br&gt;&lt;/div&gt;" style="text;strokeColor=none;fillColor=none;align=left;verticalAlign=top;spacingLeft=4;spacingRight=4;overflow=hidden;rotatable=0;points=[[0,0.5],[1,0.5]];portConstraint=eastwest;whiteSpace=wrap;html=1;" parent="oc0d_i5aHuvM6bAmKXlb-72" vertex="1">
          <mxGeometry y="26" width="360" height="84" as="geometry" />
        </mxCell>
        <mxCell id="oc0d_i5aHuvM6bAmKXlb-74" value="" style="line;strokeWidth=1;fillColor=none;align=left;verticalAlign=middle;spacingTop=-1;spacingLeft=3;spacingRight=3;rotatable=0;labelPosition=right;points=[];portConstraint=eastwest;strokeColor=inherit;" parent="oc0d_i5aHuvM6bAmKXlb-72" vertex="1">
          <mxGeometry y="110" width="360" height="8" as="geometry" />
        </mxCell>
        <mxCell id="oc0d_i5aHuvM6bAmKXlb-75" value="&lt;div&gt;__init__(self, bom_storage, bom_frame, main_window) -&amp;gt; None&lt;/div&gt;&lt;div&gt;select_and_load_bom(self, bom_storage, bom_frame, main_window) -&amp;gt; None&lt;br&gt;&lt;/div&gt;" style="text;strokeColor=none;fillColor=none;align=left;verticalAlign=top;spacingLeft=4;spacingRight=4;overflow=hidden;rotatable=0;points=[[0,0.5],[1,0.5]];portConstraint=eastwest;whiteSpace=wrap;html=1;" parent="oc0d_i5aHuvM6bAmKXlb-72" vertex="1">
          <mxGeometry y="118" width="360" height="72" as="geometry" />
        </mxCell>
        <mxCell id="oc0d_i5aHuvM6bAmKXlb-76" value="Extends" style="endArrow=block;endSize=16;endFill=0;html=1;rounded=0;exitX=0.5;exitY=0;exitDx=0;exitDy=0;" parent="1" source="oc0d_i5aHuvM6bAmKXlb-72" target="oc0d_i5aHuvM6bAmKXlb-71" edge="1">
          <mxGeometry width="160" relative="1" as="geometry">
            <mxPoint x="179.58" y="588" as="sourcePoint" />
            <mxPoint x="179.58" y="516" as="targetPoint" />
          </mxGeometry>
        </mxCell>
        <mxCell id="oc0d_i5aHuvM6bAmKXlb-80" value="" style="endArrow=none;html=1;rounded=0;entryX=0;entryY=0.5;entryDx=0;entryDy=0;" parent="1" target="oc0d_i5aHuvM6bAmKXlb-64" edge="1">
          <mxGeometry width="50" height="50" relative="1" as="geometry">
            <mxPoint x="1209" y="200" as="sourcePoint" />
            <mxPoint x="430" y="690" as="targetPoint" />
          </mxGeometry>
        </mxCell>
        <mxCell id="ZUJ1DAtpVTRaMqEPitPn-1" value="HighlightError" style="swimlane;fontStyle=1;align=center;verticalAlign=top;childLayout=stackLayout;horizontal=1;startSize=26;horizontalStack=0;resizeParent=1;resizeParentMax=0;resizeLast=0;collapsible=1;marginBottom=0;whiteSpace=wrap;html=1;strokeColor=#FF0000;" parent="1" vertex="1">
          <mxGeometry x="850" y="360" width="160" height="134" as="geometry" />
        </mxCell>
        <mxCell id="ZUJ1DAtpVTRaMqEPitPn-2" value="&lt;div&gt;reference_designator: str&lt;/div&gt;&lt;div&gt;warning: str&lt;/div&gt;&lt;div&gt;error_type: str&lt;/div&gt;&lt;div&gt;error_location: list[int]&lt;br&gt;&lt;/div&gt;" style="text;strokeColor=none;fillColor=none;align=left;verticalAlign=top;spacingLeft=4;spacingRight=4;overflow=hidden;rotatable=0;points=[[0,0.5],[1,0.5]];portConstraint=eastwest;whiteSpace=wrap;html=1;" parent="ZUJ1DAtpVTRaMqEPitPn-1" vertex="1">
          <mxGeometry y="26" width="160" height="74" as="geometry" />
        </mxCell>
        <mxCell id="ZUJ1DAtpVTRaMqEPitPn-3" value="" style="line;strokeWidth=1;fillColor=none;align=left;verticalAlign=middle;spacingTop=-1;spacingLeft=3;spacingRight=3;rotatable=0;labelPosition=right;points=[];portConstraint=eastwest;strokeColor=inherit;" parent="ZUJ1DAtpVTRaMqEPitPn-1" vertex="1">
          <mxGeometry y="100" width="160" height="8" as="geometry" />
        </mxCell>
        <mxCell id="ZUJ1DAtpVTRaMqEPitPn-4" value="+ method(type): type" style="text;strokeColor=none;fillColor=none;align=left;verticalAlign=top;spacingLeft=4;spacingRight=4;overflow=hidden;rotatable=0;points=[[0,0.5],[1,0.5]];portConstraint=eastwest;whiteSpace=wrap;html=1;" parent="ZUJ1DAtpVTRaMqEPitPn-1" vertex="1">
          <mxGeometry y="108" width="160" height="26" as="geometry" />
        </mxCell>
        <mxCell id="ZUJ1DAtpVTRaMqEPitPn-6" value="" style="endArrow=none;html=1;rounded=0;entryX=0;entryY=0.5;entryDx=0;entryDy=0;exitX=1;exitY=0.5;exitDx=0;exitDy=0;" parent="1" source="oc0d_i5aHuvM6bAmKXlb-43" target="ZUJ1DAtpVTRaMqEPitPn-2" edge="1">
          <mxGeometry width="50" height="50" relative="1" as="geometry">
            <mxPoint x="550" y="330" as="sourcePoint" />
            <mxPoint x="600" y="280" as="targetPoint" />
          </mxGeometry>
        </mxCell>
        <mxCell id="q_b3ON0QkNFNt4S9hLEJ-1" value="" style="endArrow=none;html=1;rounded=0;entryX=0;entryY=0.5;entryDx=0;entryDy=0;exitX=1;exitY=0.682;exitDx=0;exitDy=0;exitPerimeter=0;" edge="1" parent="1" source="oc0d_i5aHuvM6bAmKXlb-39" target="oc0d_i5aHuvM6bAmKXlb-73">
          <mxGeometry width="50" height="50" relative="1" as="geometry">
            <mxPoint x="830" y="380" as="sourcePoint" />
            <mxPoint x="880" y="330" as="targetPoint" />
          </mxGeometry>
        </mxCell>
        <mxCell id="q_b3ON0QkNFNt4S9hLEJ-2" value="BOM" style="swimlane;fontStyle=1;align=center;verticalAlign=top;childLayout=stackLayout;horizontal=1;startSize=26;horizontalStack=0;resizeParent=1;resizeParentMax=0;resizeLast=0;collapsible=1;marginBottom=0;whiteSpace=wrap;html=1;" vertex="1" parent="1">
          <mxGeometry x="1260" y="420" width="190" height="214" as="geometry" />
        </mxCell>
        <mxCell id="q_b3ON0QkNFNt4S9hLEJ-3" value="&lt;div&gt;name: str&lt;/div&gt;&lt;div&gt;description: str&lt;/div&gt;&lt;div&gt;quantity: str&lt;/div&gt;&lt;div&gt;reference_designator: str&lt;/div&gt;&lt;div&gt;manufacturer: str&lt;/div&gt;&lt;div&gt;manufacturer_part_number:str&lt;/div&gt;&lt;div&gt;header: str&lt;br&gt;&lt;/div&gt;&lt;div&gt;bom: pandas dataframe&lt;br&gt;&lt;/div&gt;&lt;div&gt;bom_status: Int&lt;/div&gt;&lt;div&gt;selected: tk.IntVar&lt;br&gt;&lt;/div&gt;&lt;div&gt;&lt;br&gt;&lt;/div&gt;" style="text;strokeColor=none;fillColor=none;align=left;verticalAlign=top;spacingLeft=4;spacingRight=4;overflow=hidden;rotatable=0;points=[[0,0.5],[1,0.5]];portConstraint=eastwest;whiteSpace=wrap;html=1;" vertex="1" parent="q_b3ON0QkNFNt4S9hLEJ-2">
          <mxGeometry y="26" width="190" height="154" as="geometry" />
        </mxCell>
        <mxCell id="q_b3ON0QkNFNt4S9hLEJ-4" value="" style="line;strokeWidth=1;fillColor=none;align=left;verticalAlign=middle;spacingTop=-1;spacingLeft=3;spacingRight=3;rotatable=0;labelPosition=right;points=[];portConstraint=eastwest;strokeColor=inherit;" vertex="1" parent="q_b3ON0QkNFNt4S9hLEJ-2">
          <mxGeometry y="180" width="190" height="8" as="geometry" />
        </mxCell>
        <mxCell id="q_b3ON0QkNFNt4S9hLEJ-5" value="+ method(type): type" style="text;strokeColor=none;fillColor=none;align=left;verticalAlign=top;spacingLeft=4;spacingRight=4;overflow=hidden;rotatable=0;points=[[0,0.5],[1,0.5]];portConstraint=eastwest;whiteSpace=wrap;html=1;" vertex="1" parent="q_b3ON0QkNFNt4S9hLEJ-2">
          <mxGeometry y="188" width="190" height="26" as="geometry" />
        </mxCell>
        <mxCell id="q_b3ON0QkNFNt4S9hLEJ-6" value="" style="endArrow=none;html=1;rounded=0;exitX=0.5;exitY=0;exitDx=0;exitDy=0;" edge="1" parent="1" source="q_b3ON0QkNFNt4S9hLEJ-2">
          <mxGeometry width="50" height="50" relative="1" as="geometry">
            <mxPoint x="830" y="420" as="sourcePoint" />
            <mxPoint x="1210" y="198" as="targetPoint" />
          </mxGeometry>
        </mxCell>
        <mxCell id="q_b3ON0QkNFNt4S9hLEJ-9" value="" style="endArrow=none;html=1;rounded=0;entryX=-0.005;entryY=0.727;entryDx=0;entryDy=0;entryPerimeter=0;exitX=1;exitY=0.5;exitDx=0;exitDy=0;" edge="1" parent="1" source="oc0d_i5aHuvM6bAmKXlb-73" target="oc0d_i5aHuvM6bAmKXlb-60">
          <mxGeometry width="50" height="50" relative="1" as="geometry">
            <mxPoint x="830" y="420" as="sourcePoint" />
            <mxPoint x="880" y="370" as="targetPoint" />
          </mxGeometry>
        </mxCell>
      </root>
    </mxGraphModel>
  </diagram>
</mxfile>
